<svg id="SvgjsSvg1011" width="288" height="288" xmlns="http://www.w3.org/2000/svg" version="1.1" xmlns:xlink="http://www.w3.org/1999/xlink" xmlns:svgjs="http://svgjs.com/svgjs"><defs id="SvgjsDefs1012"></defs><g id="SvgjsG1013"><svg xmlns="http://www.w3.org/2000/svg" xmlns:svgjs="http://svgjs.com/svgjs" xmlns:xlink="http://www.w3.org/1999/xlink" width="288" height="288"><svg xmlns="http://www.w3.org/2000/svg" width="288" height="288" enable-background="new 0 0 416.229 416.229" viewBox="0 0 416.229 416.229"><path fill="#ff5722" d="M403.729,29.65H71.802c-6.903,0-12.5,5.597-12.5,12.5v86.363c0,6.903,5.597,12.5,12.5,12.5s12.5-5.597,12.5-12.5V54.65    h306.927v306.928H84.302v-73.861c0-6.903-5.597-12.5-12.5-12.5s-12.5,5.597-12.5,12.5v86.361c0,6.903,5.597,12.5,12.5,12.5    h331.927c6.902,0,12.5-5.597,12.5-12.5V42.15C416.229,35.247,410.631,29.65,403.729,29.65z" class="color87314e svgShape colorb85900"></path><path fill="#ff5722" d="M185.417,287.811c0,5.057,3.045,9.613,7.716,11.55c1.547,0.642,3.17,0.95,4.781,0.95c3.253,0,6.451-1.27,8.842-3.66    l79.697-79.697c2.344-2.344,3.66-5.523,3.66-8.839c0-3.316-1.316-6.495-3.66-8.839l-79.697-79.697    c-3.575-3.575-8.951-4.646-13.623-2.71c-4.671,1.936-7.716,6.493-7.716,11.549v67.197H12.5c-6.903,0-12.5,5.597-12.5,12.5    c0,6.903,5.597,12.5,12.5,12.5h172.917V287.811L185.417,287.811z M210.417,158.594l49.521,49.52l-49.521,49.521V158.594z" class="color87314e svgShape colorb85900"></path></svg></svg></g></svg>