<svg id="SvgjsSvg1018" width="288" height="288" xmlns="http://www.w3.org/2000/svg" version="1.1" xmlns:xlink="http://www.w3.org/1999/xlink" xmlns:svgjs="http://svgjs.com/svgjs"><defs id="SvgjsDefs1019"></defs><g id="SvgjsG1020"><svg xmlns="http://www.w3.org/2000/svg" xmlns:svgjs="http://svgjs.com/svgjs" xmlns:xlink="http://www.w3.org/1999/xlink" width="288" height="288"><svg xmlns="http://www.w3.org/2000/svg" width="288" height="288" enable-background="new 0 0 612 612" viewBox="0 0 612 612"><path fill="#ff5722" d="M76.5,229.5C34.3,229.5,0,263.8,0,306s34.3,76.5,76.5,76.5S153,348.2,153,306S118.7,229.5,76.5,229.5z M76.5,344.2     c-21.1,0-38.2-17.101-38.2-38.2c0-21.1,17.1-38.2,38.2-38.2s38.2,17.1,38.2,38.2C114.7,327.1,97.6,344.2,76.5,344.2z      M535.5,229.5c-42.2,0-76.5,34.3-76.5,76.5s34.3,76.5,76.5,76.5S612,348.2,612,306S577.7,229.5,535.5,229.5z M535.5,344.2     c-21.1,0-38.2-17.101-38.2-38.2c0-21.1,17.101-38.2,38.2-38.2s38.2,17.1,38.2,38.2C573.7,327.1,556.6,344.2,535.5,344.2z      M306,229.5c-42.2,0-76.5,34.3-76.5,76.5s34.3,76.5,76.5,76.5s76.5-34.3,76.5-76.5S348.2,229.5,306,229.5z M306,344.2     c-21.1,0-38.2-17.101-38.2-38.2c0-21.1,17.1-38.2,38.2-38.2c21.1,0,38.2,17.1,38.2,38.2C344.2,327.1,327.1,344.2,306,344.2z" class="colordf405a svgShape colorff7b00"></path></svg></svg></g></svg>